<?xml version="1.0" standalone="no"?>
<!DOCTYPE svg PUBLIC "-//W3C//DTD SVG 20010904//EN"
 "http://www.w3.org/TR/2001/REC-SVG-20010904/DTD/svg10.dtd">
<svg version="1.0" xmlns="http://www.w3.org/2000/svg"
 width="2388.000000pt" height="1668.000000pt" viewBox="0 0 2388.000000 1668.000000"
 preserveAspectRatio="xMidYMid meet">

<g transform="translate(0.000000,1668.000000) scale(0.100000,-0.100000)"
fill="#000000" stroke="none">
<path d="M11810 14835 c-58 -30 -117 -57 -131 -59 -36 -8 -100 -61 -150 -126
-24 -30 -104 -118 -179 -195 -75 -77 -161 -174 -192 -215 -30 -41 -66 -84 -78
-95 -12 -11 -37 -45 -55 -77 -48 -81 -123 -175 -195 -244 -35 -33 -96 -110
-138 -174 -76 -116 -240 -423 -261 -492 -21 -65 -27 -66 -174 -18 -72 24 -168
49 -212 57 -44 8 -111 19 -150 26 -80 13 -329 15 -425 3 -94 -11 -158 -34
-177 -62 -12 -19 -13 -27 -3 -39 16 -19 79 -20 86 -1 10 26 166 56 288 56 45
0 144 -12 221 -26 77 -13 163 -29 190 -34 28 -4 82 -20 120 -35 184 -69 170
-67 330 -68 82 -1 184 4 225 10 55 9 87 9 120 1 25 -6 46 -12 48 -14 13 -10
-49 -81 -187 -216 -156 -152 -160 -157 -167 -206 -6 -46 -4 -51 18 -66 28 -18
44 -15 98 20 19 13 71 35 115 50 90 29 223 35 319 13 67 -15 103 -4 206 62 78
50 130 70 130 50 0 -19 39 -51 63 -51 12 0 55 20 96 45 41 24 96 52 122 60 36
12 59 30 90 67 40 48 133 103 152 91 4 -3 6 -71 4 -151 l-5 -146 27 -27 c19
-19 43 -30 77 -35 78 -11 372 3 423 20 44 16 61 14 61 -7 0 -13 170 -68 266
-86 33 -6 91 -11 130 -12 114 -1 117 -10 18 -49 -90 -35 -181 -98 -199 -137
-5 -12 -16 -21 -25 -21 -8 0 -35 -7 -59 -16 -52 -19 -106 -20 -201 -4 -53 9
-79 9 -108 1 -75 -23 -159 -55 -272 -103 -113 -48 -247 -86 -385 -110 -160
-27 -237 -51 -265 -85 -26 -31 2 -39 82 -21 67 14 115 21 313 46 152 19 203
35 341 104 39 19 84 38 100 42 16 4 47 16 69 27 35 18 46 18 101 8 130 -24
183 -11 254 60 44 44 44 44 50 19 6 -27 47 -47 74 -37 9 4 16 17 16 31 0 33
33 57 169 122 63 30 124 62 134 72 14 12 21 14 24 5 3 -7 29 -27 59 -44 50
-28 61 -31 112 -26 31 4 80 11 107 18 28 6 91 10 140 8 50 -2 113 -3 140 -2
28 1 105 2 173 2 86 1 148 7 205 20 128 31 348 71 387 71 64 -1 604 71 804
107 89 16 196 62 243 106 31 28 137 46 241 40 86 -5 89 -4 197 41 164 69 174
74 245 117 42 24 84 41 115 45 30 4 60 15 75 29 34 30 205 138 262 166 46 22
48 22 68 4 20 -18 21 -18 48 8 15 15 49 34 74 43 33 11 53 25 66 47 20 34 124
103 140 93 6 -3 5 -21 -1 -45 -24 -89 28 -114 141 -67 79 33 167 42 234 23 29
-8 105 -25 168 -38 l116 -23 99 31 c200 61 233 64 335 33 45 -14 94 -20 158
-20 50 0 92 -4 92 -9 0 -4 11 -25 25 -45 l25 -36 -39 -35 c-41 -38 -54 -72
-38 -102 44 -78 218 -254 313 -317 37 -24 42 -33 48 -75 3 -26 19 -72 34 -101
21 -43 37 -59 77 -80 l50 -27 0 -59 c1 -71 17 -129 49 -176 l23 -35 -18 -49
c-51 -134 12 -254 128 -241 23 2 43 1 43 -3 0 -15 -53 -127 -86 -181 -27 -45
-34 -67 -34 -109 0 -37 -8 -69 -26 -105 -14 -29 -28 -79 -31 -111 -3 -33 -10
-64 -14 -70 -20 -26 -59 -148 -59 -187 0 -26 -12 -66 -31 -107 -17 -36 -40
-89 -51 -117 -10 -29 -39 -81 -63 -116 -24 -35 -55 -99 -69 -142 -14 -42 -37
-92 -51 -111 -14 -18 -39 -64 -56 -101 -17 -37 -47 -88 -68 -113 -21 -25 -48
-64 -60 -87 -11 -23 -36 -59 -54 -79 -53 -61 -165 -153 -195 -160 -43 -11
-105 -59 -132 -103 -26 -43 -60 -61 -117 -61 -66 0 -131 -50 -134 -102 0 -20
-102 -80 -224 -134 -99 -43 -120 -49 -205 -54 -108 -6 -135 -18 -195 -80 -68
-72 -206 -182 -300 -240 -49 -30 -107 -72 -129 -93 -23 -21 -83 -59 -134 -85
-100 -50 -182 -113 -220 -168 -28 -42 -42 -43 -42 -3 0 21 10 43 30 66 17 19
28 38 25 43 -9 15 -117 -20 -203 -65 -45 -24 -132 -62 -194 -85 -62 -22 -117
-45 -124 -51 -16 -13 -24 10 -24 69 0 91 -79 326 -147 436 -54 88 -102 183
-133 263 -64 166 -219 403 -263 403 -26 0 -20 -23 22 -86 54 -81 157 -280 180
-345 10 -30 42 -101 70 -158 129 -259 178 -416 187 -602 13 -250 -23 -407
-127 -544 -33 -44 -87 -124 -120 -177 -33 -53 -64 -100 -69 -103 -6 -4 -22
-28 -35 -55 -25 -50 -113 -190 -119 -190 -2 0 -48 20 -102 44 -55 24 -153 60
-219 80 -66 21 -160 53 -210 71 -177 67 -300 84 -300 40 0 -23 30 -39 105 -56
30 -6 87 -25 125 -41 39 -17 140 -54 226 -83 85 -28 202 -74 260 -102 57 -27
128 -60 156 -73 87 -39 86 -33 81 -237 -5 -198 -10 -219 -80 -338 -50 -85
-110 -150 -161 -177 -22 -10 -75 -53 -118 -94 -44 -41 -86 -74 -93 -74 -7 0
-120 -52 -252 -116 -251 -122 -321 -150 -469 -189 -49 -13 -116 -35 -149 -50
-34 -15 -100 -32 -160 -40 -55 -8 -130 -24 -166 -35 -228 -73 -287 -84 -465
-85 -106 -1 -181 -6 -198 -13 -19 -8 -98 -12 -236 -12 -206 0 -307 10 -471 45
-41 9 -120 20 -175 26 -206 19 -242 27 -358 78 -61 27 -158 63 -215 81 -56 17
-140 49 -184 71 -45 21 -97 39 -114 39 -61 0 -133 21 -171 51 -21 16 -55 42
-76 58 -21 17 -74 42 -118 56 -52 18 -95 40 -122 64 -24 20 -63 45 -87 55
-123 52 -149 66 -199 107 -30 24 -82 70 -116 102 -60 55 -62 60 -75 129 -7 39
-23 102 -36 139 -24 68 -51 239 -64 404 -11 131 -30 297 -35 306 -3 4 -1 10 4
13 5 3 26 -8 47 -25 40 -32 94 -63 94 -55 0 3 -28 42 -62 88 -83 109 -298 469
-337 563 -33 79 -59 254 -47 325 6 38 45 135 95 240 17 36 31 71 31 79 0 8 12
34 26 58 14 25 39 82 54 128 27 80 88 184 126 215 9 8 37 46 61 83 24 38 67
98 96 133 70 85 160 211 181 252 20 40 18 86 -5 90 -11 2 -28 -15 -48 -47 -17
-28 -49 -75 -71 -103 -108 -140 -144 -188 -187 -253 -25 -38 -68 -96 -95 -129
-64 -77 -92 -127 -125 -217 -14 -41 -36 -85 -49 -97 -13 -13 -30 -47 -40 -75
-15 -48 -66 -163 -100 -229 -41 -78 -55 -178 -31 -226 8 -15 19 -64 26 -109
18 -123 62 -218 201 -438 78 -123 84 -135 86 -175 1 -19 8 -100 17 -180 9 -80
19 -183 22 -230 13 -168 44 -367 70 -450 54 -169 49 -162 183 -298 121 -123
130 -130 205 -158 51 -19 98 -45 133 -75 40 -34 75 -53 131 -70 58 -18 90 -36
131 -71 72 -63 129 -89 212 -98 50 -6 96 -21 178 -59 61 -28 115 -51 120 -51
40 0 344 -126 351 -145 2 -5 -28 -29 -67 -53 -38 -23 -108 -78 -156 -122 -89
-83 -105 -94 -84 -60 20 32 -5 42 -92 35 -41 -3 -131 -9 -200 -13 -69 -4 -136
-13 -150 -18 -14 -6 -49 -14 -78 -18 -60 -8 -124 -30 -164 -58 -14 -10 -59
-26 -99 -34 -50 -12 -90 -29 -133 -58 -43 -30 -87 -49 -149 -65 -99 -26 -155
-24 -196 7 -39 28 -41 100 -5 178 24 53 26 65 20 133 -9 99 -39 215 -83 320
-32 79 -34 88 -23 130 13 50 92 216 116 242 23 25 14 53 -17 57 -19 2 -33 -5
-52 -28 -39 -45 -113 -200 -128 -264 -13 -58 -14 -54 41 -201 25 -67 55 -179
65 -240 8 -51 -4 -62 -173 -175 -67 -45 -155 -109 -195 -143 -40 -34 -138
-111 -216 -172 -79 -60 -180 -139 -225 -175 -103 -83 -140 -110 -196 -142 -25
-14 -79 -56 -120 -93 -41 -37 -100 -80 -131 -95 -32 -17 -78 -53 -111 -88 -30
-33 -93 -87 -139 -120 -46 -33 -111 -84 -144 -113 -33 -30 -83 -71 -112 -92
-28 -20 -84 -77 -124 -125 -39 -48 -91 -105 -113 -128 -23 -22 -68 -71 -101
-110 -33 -38 -106 -121 -162 -184 -762 -861 -1225 -1810 -1404 -2880 -48 -288
-82 -769 -71 -1013 l4 -97 363 0 364 0 34 57 c58 97 143 263 183 358 47 111
62 138 294 510 157 253 186 304 227 400 17 39 56 113 88 165 114 188 188 316
227 395 23 44 54 99 69 122 16 23 29 44 29 47 0 4 46 82 103 174 56 92 133
230 171 307 38 77 83 165 101 195 18 30 41 82 50 115 57 195 85 271 133 365
30 58 85 177 121 265 70 167 132 270 326 540 48 66 101 145 119 175 91 153
135 221 181 280 28 36 84 110 125 165 40 55 108 136 150 180 58 60 89 103 123
171 25 49 62 112 83 140 62 82 224 252 275 290 42 31 49 40 46 67 -2 31 -1 32
67 50 38 10 87 31 109 45 22 15 51 34 64 43 13 9 49 21 78 27 30 6 88 29 130
52 50 26 90 40 113 40 21 0 53 5 72 11 19 6 100 18 180 25 80 7 165 16 189 20
l43 7 -37 -52 c-35 -48 -40 -51 -69 -45 -58 10 -123 -32 -193 -123 -14 -18
-40 -42 -58 -53 -45 -28 -203 -205 -246 -276 -19 -32 -50 -81 -67 -109 -17
-27 -38 -76 -46 -109 -9 -32 -29 -88 -45 -125 -42 -95 -102 -294 -112 -376
-17 -128 -22 -346 -10 -420 34 -203 72 -322 138 -435 79 -133 258 -330 341
-375 52 -27 206 -92 277 -117 33 -11 80 -35 105 -53 53 -38 99 -55 151 -55 25
0 60 -13 110 -41 55 -31 89 -43 142 -50 39 -5 102 -20 141 -33 39 -13 103 -27
141 -31 39 -3 106 -17 150 -30 44 -13 105 -28 135 -34 30 -6 79 -15 108 -21
68 -13 246 -13 314 0 29 6 78 15 108 21 30 6 91 21 135 34 44 13 112 27 150
30 39 4 103 18 143 32 39 13 102 28 140 33 81 10 188 40 222 62 14 9 45 22 70
28 25 7 72 27 105 45 33 18 107 54 165 80 262 117 252 111 348 209 126 128
156 163 198 237 48 81 133 254 146 294 5 17 15 129 22 249 19 321 7 398 -104
666 -29 69 -63 154 -77 190 -21 56 -74 149 -146 255 -34 49 -170 195 -204 219
-44 31 -223 226 -223 243 0 12 18 14 113 8 61 -4 120 -11 129 -16 9 -5 52 -14
95 -20 59 -8 91 -19 133 -45 30 -18 79 -38 109 -44 53 -10 65 -15 148 -72 22
-14 71 -35 109 -45 68 -18 69 -19 67 -50 -2 -27 4 -36 51 -71 115 -87 348
-366 530 -637 52 -77 126 -180 165 -230 38 -49 98 -135 132 -190 162 -262 244
-398 370 -613 126 -215 136 -236 126 -261 -9 -24 -6 -35 19 -73 16 -25 43 -67
61 -94 18 -27 52 -76 76 -109 67 -91 182 -329 233 -483 42 -126 77 -213 139
-347 43 -93 124 -293 155 -385 28 -82 94 -255 130 -340 62 -146 91 -232 83
-254 -9 -28 -6 -42 21 -85 13 -20 37 -79 55 -131 18 -52 41 -104 51 -115 11
-12 28 -46 39 -76 12 -35 49 -96 99 -162 45 -58 90 -126 101 -150 23 -49 233
-341 291 -402 48 -52 158 -201 178 -242 l16 -33 257 0 258 0 5 33 c3 17 13 72
21 121 14 74 15 137 10 365 -6 268 -26 588 -45 741 -5 41 -16 134 -24 205 -9
72 -27 171 -41 220 -14 50 -43 162 -64 250 -126 507 -359 1046 -660 1523 -55
88 -121 217 -160 315 -18 43 -38 70 -78 104 -54 46 -190 206 -250 293 -71 103
-511 509 -693 640 -73 52 -161 126 -287 242 -35 31 -84 69 -110 84 -47 27
-118 80 -258 190 -38 30 -104 79 -145 109 -41 29 -133 103 -205 164 -127 108
-158 128 -300 191 -38 17 -78 38 -87 47 -40 36 -15 162 89 451 21 58 7 123
-53 243 -58 114 -88 151 -123 147 -31 -4 -40 -32 -17 -57 27 -30 115 -217 122
-259 5 -33 0 -54 -30 -119 -42 -94 -74 -219 -83 -325 -6 -74 -5 -78 26 -127
67 -103 48 -167 -54 -190 -51 -12 -66 -11 -148 10 -69 17 -108 33 -154 65 -40
28 -82 46 -120 54 -32 7 -88 28 -126 47 -42 21 -99 40 -148 49 -44 8 -86 17
-92 21 -7 5 -68 11 -137 15 -69 3 -154 10 -190 13 -46 5 -83 2 -125 -9 -33 -8
-103 -20 -155 -26 -120 -15 -191 -39 -305 -102 -147 -83 -158 -88 -191 -88
-37 0 -44 12 -44 74 0 58 -28 97 -122 171 -42 33 -77 65 -77 71 -2 23 104 37
231 30 71 -3 138 -2 158 4 19 5 78 20 130 33 52 13 135 36 183 51 49 15 131
34 182 41 61 8 118 24 162 44 37 17 102 40 144 51 119 32 221 72 384 150 256
123 309 148 348 164 21 8 77 53 125 99 48 46 101 91 117 100 45 23 88 73 144
167 71 117 88 183 96 368 4 83 11 152 16 152 28 0 169 -103 218 -159 31 -36
84 -94 117 -130 52 -55 60 -69 52 -86 -7 -16 2 -38 47 -110 31 -50 66 -112 78
-140 74 -169 139 -285 176 -314 21 -17 57 -62 79 -99 47 -79 79 -105 125 -100
39 4 44 19 53 141 3 48 9 87 14 87 4 0 43 -31 86 -70 153 -136 332 -240 411
-240 34 0 71 42 79 90 4 22 10 43 14 45 4 3 45 -12 91 -32 72 -32 97 -37 178
-41 76 -4 101 -1 126 12 72 39 86 129 34 226 -64 121 -194 219 -389 295 -146
56 -390 183 -390 203 0 7 15 31 33 54 61 76 33 164 -70 224 -151 89 -424 97
-740 22 l-92 -22 -73 70 c-40 39 -106 90 -146 114 -40 23 -86 55 -101 70 -29
26 -29 26 -27 141 2 72 8 123 16 139 7 14 70 108 138 210 174 257 188 292 198
505 4 72 10 136 14 144 4 8 27 14 61 15 61 2 188 47 286 101 35 19 68 35 74
35 7 0 10 -31 8 -92 -4 -87 -3 -93 16 -96 24 -3 45 16 100 89 67 90 144 157
245 211 52 28 111 66 130 84 19 18 78 58 130 90 100 60 175 118 277 214 78 74
101 86 191 94 96 9 154 27 276 86 104 50 173 106 211 171 19 31 25 34 82 40
82 8 117 24 146 67 16 25 51 52 106 82 63 35 92 58 127 103 27 35 51 57 58 54
19 -8 60 39 85 96 11 27 44 80 72 119 28 39 62 96 76 126 13 30 35 68 48 86
13 17 42 74 64 126 23 52 52 111 66 130 30 44 110 215 135 291 11 32 20 75 20
96 0 21 16 74 35 118 19 44 35 96 35 117 0 21 11 63 25 94 15 33 25 75 25 102
0 32 11 65 40 121 78 151 90 187 90 273 0 64 -3 80 -17 85 -11 4 -21 0 -27
-12 -29 -49 -59 -75 -86 -75 -15 0 -33 7 -40 15 -21 25 -24 91 -6 135 22 56
20 76 -13 146 -16 33 -34 94 -41 135 -14 88 -26 108 -83 148 -33 22 -47 40
-56 73 -43 142 -38 133 -128 210 -136 115 -237 209 -253 235 -14 23 -13 26 13
49 21 18 40 24 73 24 41 0 44 2 44 28 0 34 -24 70 -56 82 -13 5 -32 27 -44 49
-11 22 -29 45 -39 50 -10 6 -70 13 -133 15 -62 2 -126 9 -141 15 -68 27 -245
8 -373 -40 -35 -13 -69 -19 -92 -16 -56 7 -203 36 -242 47 -51 15 -170 12
-226 -5 -76 -23 -84 -21 -84 21 0 56 -15 74 -61 74 -51 0 -95 -19 -175 -75
-84 -59 -115 -74 -191 -96 -76 -21 -204 -93 -321 -178 -30 -22 -65 -38 -96
-42 -28 -5 -77 -25 -116 -49 -38 -23 -92 -50 -122 -61 -29 -11 -66 -26 -83
-34 -119 -54 -157 -61 -272 -49 l-59 6 -17 63 c-9 35 -17 78 -17 97 0 38 -25
163 -41 205 -18 47 -77 318 -85 385 -4 35 -17 90 -29 123 -43 115 -134 291
-183 355 -27 36 -63 97 -79 135 -16 39 -52 100 -80 136 -28 37 -62 93 -77 124
-20 44 -54 85 -148 177 -126 123 -147 138 -199 138 -34 0 -61 12 -104 48 -27
22 -34 24 -100 17 -38 -4 -136 -7 -216 -6 -121 1 -158 -2 -210 -19 -35 -11
-91 -20 -124 -20 -35 0 -106 -13 -170 -30 -71 -20 -154 -34 -233 -40 -68 -5
-127 -12 -131 -14 -4 -3 -137 -1 -296 4 -249 7 -300 12 -360 30 -38 11 -106
27 -150 36 -143 26 -179 36 -265 70 -77 30 -100 34 -250 43 -91 6 -172 11
-180 11 -8 0 -62 -25 -120 -55z m422 -35 c31 -5 87 -22 125 -38 69 -30 99 -38
258 -68 50 -9 119 -26 155 -38 61 -20 85 -21 395 -21 369 0 512 11 630 49 44
15 121 31 170 36 50 5 111 17 135 27 37 14 73 17 202 15 86 -1 178 2 204 8 42
10 51 8 73 -8 42 -31 83 -49 128 -56 37 -5 56 -20 162 -125 95 -94 126 -132
146 -178 14 -32 47 -84 72 -116 25 -32 58 -93 75 -135 17 -44 52 -106 83 -147
32 -42 81 -130 123 -220 60 -129 71 -161 77 -225 8 -86 47 -277 75 -365 34
-105 59 -249 63 -355 l1 -45 -108 -56 c-109 -56 -161 -71 -296 -84 -36 -4 -99
-14 -140 -22 -41 -8 -106 -19 -145 -24 -38 -5 -99 -13 -135 -18 -36 -5 -135
-18 -220 -30 -85 -11 -220 -34 -300 -51 -171 -37 -266 -42 -512 -27 -141 9
-192 8 -255 -3 -152 -26 -159 -25 -215 9 -71 44 -137 59 -315 71 -140 10 -255
28 -282 45 -18 11 -12 25 12 27 77 5 -147 16 -352 17 -212 1 -247 3 -263 18
-16 14 -18 34 -18 168 0 192 -3 196 -124 153 -74 -26 -117 -56 -145 -101 -15
-24 -33 -37 -63 -46 -24 -7 -71 -28 -106 -47 -34 -19 -68 -34 -73 -34 -6 0
-20 11 -31 25 -11 14 -29 25 -41 25 -33 -1 -125 -42 -196 -88 l-64 -42 -176 0
c-123 0 -192 -5 -231 -15 -98 -26 -98 -22 4 88 52 56 109 121 125 145 17 23
35 42 39 42 5 0 14 11 20 25 9 19 19 25 42 25 17 0 30 5 30 13 0 21 -92 75
-157 93 -55 15 -73 16 -150 4 -126 -18 -273 -24 -273 -11 0 15 107 225 172
338 123 214 155 259 239 343 50 49 114 127 152 185 36 55 84 121 107 146 22
26 55 69 73 95 18 27 95 114 172 194 77 80 154 163 170 185 65 88 107 125 159
140 28 9 87 36 131 60 l80 44 125 -5 c69 -3 151 -10 182 -14z m3216 -7173 c3
-36 2 -38 -20 -32 -13 4 -29 13 -37 21 -13 12 -12 16 4 34 28 31 49 22 53 -23z
m1100 -371 c34 -8 82 -26 107 -40 72 -43 84 -85 37 -137 -32 -36 -40 -37 -172
-20 -46 5 -86 9 -88 7 -2 -2 17 -14 42 -26 26 -12 46 -26 46 -31 0 -15 -73
-28 -172 -31 -105 -3 -116 -10 -84 -54 13 -17 27 -19 118 -19 57 0 126 6 153
13 112 28 112 28 225 -34 136 -75 291 -148 360 -171 173 -57 340 -213 340
-315 0 -29 -6 -41 -25 -54 -21 -14 -35 -15 -105 -5 -44 6 -93 17 -109 25 -46
24 -114 46 -143 46 -19 0 -37 13 -65 44 -91 105 -354 267 -528 325 -49 16 -92
28 -94 25 -13 -13 92 -98 177 -144 144 -77 258 -156 333 -230 58 -58 90 -112
75 -128 -3 -2 -26 1 -51 8 -63 18 -184 101 -318 218 -62 54 -131 113 -155 131
-23 18 -65 68 -92 110 -37 58 -69 92 -134 143 -60 47 -94 83 -113 118 -16 27
-34 50 -41 50 -18 0 -162 131 -162 148 0 6 6 12 13 13 6 0 77 9 157 19 164 22
363 20 468 -4z m-488 -258 c7 -18 62 -81 122 -140 104 -101 110 -110 104 -139
-5 -27 -1 -36 32 -68 29 -28 43 -54 60 -111 22 -74 29 -160 14 -160 -4 0 -18
28 -32 62 -17 43 -42 79 -80 118 -42 42 -70 85 -117 181 -34 70 -87 160 -118
200 -30 41 -55 77 -55 81 0 5 13 8 29 8 23 0 31 -6 41 -32z m-3650 -974 c141
-31 242 -43 406 -50 167 -6 172 -7 182 -30 6 -12 35 -40 64 -62 29 -21 79 -63
112 -92 l58 -54 -4 -115 c-5 -134 -24 -199 -85 -286 -21 -30 -69 -100 -107
-155 -48 -70 -87 -114 -127 -144 -55 -41 -85 -55 -199 -86 -114 -31 -146 -45
-218 -93 -42 -28 -99 -70 -126 -94 -27 -24 -79 -61 -115 -83 -88 -51 -220
-199 -276 -309 -43 -84 -105 -317 -105 -393 0 -41 -60 -262 -73 -270 -7 -4
-16 -8 -21 -8 -11 0 -76 69 -103 111 -12 19 -52 78 -88 132 -80 120 -109 183
-171 373 l-49 149 3 215 c3 179 7 223 23 265 10 27 34 111 53 185 50 197 80
280 148 420 60 121 66 129 187 251 134 134 203 181 331 225 55 20 78 22 150
17 47 -3 114 -12 150 -19z m3248 -430 c43 -39 74 -76 69 -80 -9 -9 -294 182
-307 206 -17 32 3 30 82 -12 51 -26 108 -67 156 -114z m-2139 -140 c40 -27
100 -66 134 -86 72 -43 110 -83 182 -194 72 -110 73 -113 95 -201 27 -108 27
-271 -1 -417 -20 -106 -41 -166 -57 -166 -4 0 -28 33 -54 73 -70 108 -268 316
-373 393 -114 84 -292 174 -345 174 -42 1 -43 17 -7 76 20 33 56 86 81 119 54
71 109 180 126 250 6 28 13 55 15 62 6 20 124 -28 204 -83z m1738 31 c3 -9 3
-18 0 -21 -9 -9 -48 16 -42 27 9 14 35 11 42 -6z m1078 -432 c42 -28 210 -183
235 -217 13 -19 13 -19 -15 1 -67 48 -269 219 -273 231 -6 19 10 15 53 -15z
m395 -334 c86 -58 216 -170 273 -235 45 -51 47 -55 18 -34 -89 62 -371 300
-371 313 0 10 7 6 80 -44z m-5878 -502 c-7 -119 -22 -80 -21 56 1 119 2 121
14 71 7 -30 10 -83 7 -127z m493 -845 c22 -12 35 -21 28 -22 -19 0 -120 46
-128 59 -8 13 34 -2 100 -37z m647 -239 c74 -33 93 -53 49 -53 -32 0 -164 60
-177 81 -11 18 60 2 128 -28z m346 -81 c28 -15 52 -30 52 -34 0 -5 -26 -6 -57
-2 -66 6 -198 42 -189 51 11 11 81 21 111 16 17 -3 54 -17 83 -31z m670 -102
c59 0 33 -17 -52 -33 -105 -21 -119 -21 -220 -1 -131 26 -122 33 38 33 81 0
151 3 154 6 4 3 16 4 27 1 11 -3 35 -6 53 -6z m5196 -128 c74 -147 196 -457
196 -496 0 -11 -31 48 -75 147 -29 65 -175 425 -175 432 0 18 16 -6 54 -83z"/>
<path d="M8861 13371 c-18 -24 -21 -44 -21 -119 0 -101 -8 -117 -80 -167 -36
-25 -53 -29 -109 -30 -68 -1 -132 -25 -176 -66 -36 -33 -98 -52 -195 -60 -161
-13 -211 -40 -312 -168 -69 -87 -92 -103 -126 -90 -13 5 -47 9 -75 9 -39 0
-62 6 -89 25 -54 37 -98 34 -137 -10 -31 -35 -61 -117 -61 -165 0 -94 -115
-238 -259 -323 -105 -63 -185 -155 -252 -291 -27 -55 -49 -107 -49 -117 0 -15
-31 -110 -83 -254 -11 -30 -15 -94 -15 -265 0 -256 5 -287 72 -443 24 -56 52
-131 61 -167 29 -112 36 -128 52 -134 9 -4 21 -2 27 4 5 5 24 10 42 10 51 0
74 -46 74 -145 l0 -78 53 -52 c33 -33 69 -58 100 -69 26 -9 68 -23 93 -32 72
-25 84 -43 84 -119 0 -53 4 -68 22 -85 12 -11 24 -20 28 -20 3 0 14 -15 24
-32 43 -75 109 -126 210 -162 51 -19 64 -28 86 -66 l26 -45 74 -3 c70 -3 76
-5 117 -43 24 -22 57 -42 73 -46 17 -3 49 -22 73 -43 46 -41 87 -64 132 -74
17 -4 50 -20 75 -35 25 -16 66 -36 91 -46 99 -36 234 -162 307 -285 21 -34 27
-59 27 -102 1 -46 5 -62 25 -83 27 -29 86 -34 141 -11 55 22 194 28 236 11 20
-8 56 -15 82 -15 27 0 58 -8 77 -19 31 -19 78 -30 211 -51 63 -10 159 -48 204
-81 21 -16 49 -5 49 18 0 66 -147 136 -328 159 -40 4 -63 14 -90 38 -32 28
-41 31 -96 29 -34 -2 -79 2 -101 8 -28 7 -75 7 -155 -1 -63 -6 -126 -12 -139
-13 -22 -2 -26 5 -46 68 -48 158 -208 331 -375 405 -30 14 -69 34 -87 46 -17
12 -56 24 -85 28 -47 6 -59 13 -100 57 -25 27 -63 56 -84 65 -21 9 -58 34 -83
55 -41 36 -48 39 -107 39 -60 0 -63 1 -83 33 -20 33 -86 77 -115 77 -25 0
-108 45 -132 72 -11 12 -31 39 -43 59 -12 21 -32 40 -46 43 -31 8 -42 46 -25
85 10 25 9 36 -8 74 -24 54 -62 79 -160 102 -58 14 -82 26 -113 55 -38 36 -39
38 -39 107 0 64 -3 76 -33 119 -37 54 -135 136 -154 129 -7 -2 -18 17 -27 49
-9 29 -31 87 -50 128 -66 144 -69 162 -71 408 l-3 225 34 85 c18 47 44 126 57
177 47 176 156 326 293 405 85 48 139 96 200 178 49 66 59 90 79 200 8 46 22
94 30 107 l15 22 47 -29 c38 -24 58 -30 104 -30 32 0 61 -4 64 -10 3 -5 25
-10 49 -10 47 0 61 12 154 132 79 101 109 123 192 142 40 9 99 16 132 16 64 0
105 16 197 79 52 35 57 36 131 33 74 -2 78 -1 137 37 88 57 93 67 93 189 0 85
3 104 16 109 10 4 20 0 26 -10 11 -20 58 -47 113 -64 80 -25 335 -12 335 17 0
12 -127 38 -218 44 -86 6 -136 23 -201 71 -46 34 -84 33 -110 -4z m-1796
-2751 c15 -29 15 -30 -5 -30 -16 0 -20 7 -20 30 0 17 2 30 5 30 2 0 11 -13 20
-30z"/>
<path d="M13676 12151 c-9 -14 4 -41 20 -41 7 0 39 -33 71 -72 31 -40 87 -104
124 -143 76 -81 194 -233 204 -265 20 -63 -33 -132 -180 -237 -114 -80 -302
-183 -337 -183 -14 0 -5 45 26 123 39 96 42 135 16 219 -12 40 -31 89 -42 107
-11 19 -30 62 -43 96 -60 160 -115 227 -242 293 -96 50 -142 54 -178 17 -14
-13 -25 -28 -25 -34 0 -16 30 -41 58 -47 43 -11 144 -70 179 -106 18 -18 39
-49 47 -69 8 -20 26 -50 39 -65 30 -36 103 -198 113 -249 5 -30 -1 -61 -32
-153 -38 -111 -40 -115 -87 -146 -51 -33 -68 -66 -46 -92 12 -14 31 -16 131
-12 l118 5 0 -68 c0 -125 60 -320 112 -364 48 -41 76 -33 102 28 13 33 19 37
38 31 13 -3 46 -28 75 -55 42 -40 58 -49 88 -49 24 0 48 -9 71 -26 21 -16 45
-26 62 -25 138 11 301 -4 362 -32 18 -9 41 -45 80 -123 30 -62 64 -121 74
-133 34 -37 67 -24 80 32 3 15 9 37 12 50 4 17 -10 48 -50 114 -31 50 -56 98
-56 107 0 47 -25 121 -51 151 -35 40 -136 84 -262 116 -102 25 -125 40 -165
112 -34 61 -93 117 -154 148 -46 23 -128 96 -128 114 0 6 28 32 63 57 99 73
214 199 227 249 12 45 8 100 -12 156 -10 28 -9 35 8 54 38 42 66 49 201 49
178 -1 201 -7 277 -83 73 -71 100 -118 115 -202 18 -94 14 -126 -19 -165 -36
-41 -39 -87 -10 -154 10 -25 26 -81 34 -123 24 -127 46 -167 111 -200 17 -8
42 -27 57 -41 15 -14 29 -24 30 -21 20 33 28 51 23 59 -3 5 2 27 11 49 16 39
36 52 49 31 11 -18 45 9 45 35 0 28 -43 65 -75 65 -32 0 -76 -38 -74 -64 3
-41 -1 -56 -15 -56 -15 0 -66 107 -66 140 0 12 -14 63 -30 112 l-30 91 36 35
36 35 -6 76 c-9 109 -24 168 -57 230 -16 30 -27 57 -24 60 11 10 60 -37 71
-67 21 -65 38 -62 63 11 16 48 7 87 -27 119 -50 47 -103 66 -252 91 -14 3 -61
12 -105 22 -107 23 -275 17 -305 -10 -11 -10 -42 -31 -67 -45 l-47 -27 -151
150 c-82 82 -168 162 -190 177 -43 29 -110 47 -119 31z m84 -1038 c0 -71 -12
-79 -39 -28 -19 37 -21 48 -11 60 7 8 21 15 31 15 16 0 19 -8 19 -47z"/>
<path d="M15060 12076 c0 -9 5 -16 10 -16 6 0 37 -25 70 -55 33 -30 64 -55 68
-55 5 0 41 -36 80 -81 63 -72 70 -83 60 -104 -9 -21 -2 -31 78 -114 65 -66
101 -113 134 -176 l45 -85 -22 -15 c-32 -22 -47 -76 -34 -122 6 -21 11 -70 11
-109 0 -111 35 -197 114 -283 27 -28 33 -39 19 -32 -35 18 -61 13 -79 -14 -15
-22 -15 -27 -1 -48 25 -38 127 -87 182 -87 57 0 81 12 89 45 11 43 -24 105
-93 164 -96 83 -141 188 -141 332 0 72 1 76 30 97 45 34 40 66 -31 199 -46 86
-76 129 -120 171 -43 41 -59 63 -59 82 0 34 -79 140 -152 204 -92 81 -258 147
-258 102z"/>
<path d="M11290 11991 c-60 -5 -101 -14 -140 -32 -81 -38 -247 -149 -307 -205
-46 -43 -52 -54 -51 -86 3 -73 -57 -118 -159 -118 -52 0 -73 -25 -73 -87 0
-35 3 -43 18 -43 11 0 24 11 30 25 10 22 16 24 82 24 55 0 78 4 105 21 56 35
87 83 94 147 l6 57 65 42 c36 23 100 68 142 99 45 33 98 63 128 71 27 8 72 20
98 28 63 17 94 35 89 49 -5 15 -20 16 -127 8z"/>
<path d="M12587 11895 c-26 -20 -49 -46 -51 -58 -3 -12 -7 -33 -10 -47 -3 -14
-12 -52 -20 -85 -42 -164 13 -391 117 -480 62 -54 91 -66 172 -72 64 -5 78 -3
110 17 43 27 43 30 -4 160 -48 134 -37 233 38 328 46 57 86 84 183 122 68 27
69 27 41 38 -15 6 -52 13 -82 16 -43 4 -62 1 -100 -19 -56 -28 -141 -115 -171
-172 -46 -90 -49 -286 -4 -328 12 -11 26 -33 30 -49 6 -26 5 -27 -22 -21 -68
15 -94 28 -128 61 -73 71 -110 182 -104 313 2 74 8 97 33 146 21 40 41 64 64
76 50 27 64 43 56 68 -5 17 -14 21 -54 21 -40 0 -56 -6 -94 -35z"/>
<path d="M12195 11844 c-44 -14 -102 -31 -128 -39 -67 -19 -93 -39 -118 -86
-11 -23 -33 -53 -47 -66 -24 -23 -93 -63 -107 -63 -3 0 -5 18 -5 40 0 37 -31
113 -52 126 -15 10 -58 -5 -58 -20 0 -7 7 -19 15 -26 10 -8 15 -30 15 -64 0
-67 -32 -125 -83 -149 -39 -20 -48 -45 -22 -67 25 -21 91 -3 209 58 108 56
206 134 206 165 0 28 42 56 122 81 155 48 238 57 290 30 39 -20 52 -8 43 44
-4 29 -13 42 -31 51 -43 19 -162 12 -249 -15z"/>
<path d="M11585 11653 c-11 -3 -92 -40 -180 -83 -88 -42 -191 -87 -230 -100
-104 -34 -150 -60 -281 -158 -140 -105 -167 -132 -183 -190 -9 -32 -21 -49
-46 -63 -22 -13 -38 -33 -46 -56 -14 -43 -6 -120 16 -164 15 -29 15 -34 1 -63
-9 -17 -20 -50 -26 -74 l-11 -43 -42 83 c-68 134 -115 149 -164 55 l-28 -52
-8 155 c-9 184 1 287 39 365 25 55 40 65 61 44 17 -17 31 -3 43 41 15 57 1 80
-49 80 -54 0 -109 -43 -148 -116 -49 -93 -63 -178 -63 -377 l0 -174 -55 -55
c-90 -90 -72 -138 52 -138 85 0 129 17 189 72 37 34 47 39 55 27 5 -8 9 -21 9
-29 0 -24 35 -129 65 -195 34 -78 69 -115 110 -115 59 0 71 37 28 83 -25 25
-28 36 -28 97 0 93 17 109 46 44 12 -27 27 -59 32 -72 8 -17 18 -22 36 -20 25
3 26 5 29 88 3 94 -9 140 -76 280 -49 102 -49 139 3 214 89 130 300 285 463
340 223 76 455 220 427 266 -6 10 -8 11 -40 3z"/>
<path d="M15216 11365 c-25 -26 -36 -84 -36 -195 0 -95 3 -111 29 -165 25 -53
61 -95 111 -132 8 -6 32 -14 53 -18 46 -9 50 9 11 46 -15 13 -44 60 -65 103
l-39 80 0 136 c0 135 -6 160 -36 160 -7 0 -19 -7 -28 -15z"/>
<path d="M12180 11139 c-25 -12 -75 -31 -113 -44 -158 -53 -490 -295 -710
-518 -153 -155 -207 -221 -207 -255 0 -33 29 -35 59 -3 20 22 34 28 53 24 14
-3 36 1 49 7 20 11 25 10 37 -9 15 -22 46 -28 58 -10 3 6 27 19 53 30 25 11
56 31 67 45 21 25 22 26 47 10 22 -15 29 -15 59 -3 18 8 46 29 62 46 17 17 39
31 50 31 63 0 132 26 175 68 48 44 56 48 66 32 8 -14 71 -13 98 2 12 6 48 35
80 65 32 29 64 53 71 53 8 0 17 -11 20 -25 6 -25 30 -33 51 -17 26 18 105 122
133 175 17 32 39 90 49 129 18 69 18 71 -1 82 -11 6 -31 23 -45 37 -29 30 -93
44 -123 28 -16 -9 -25 -6 -47 15 -32 31 -34 31 -91 5z"/>
<path d="M15093 10903 c-18 -7 -16 -27 6 -65 22 -37 38 -93 51 -175 8 -46 6
-65 -11 -115 -16 -46 -20 -78 -17 -138 3 -68 7 -84 33 -122 17 -23 46 -53 65
-66 30 -20 43 -23 88 -18 45 5 60 3 88 -15 28 -17 33 -25 28 -43 -7 -22 -8
-30 -6 -58 3 -27 29 -21 36 7 8 33 74 66 146 72 53 5 59 3 93 -26 27 -24 45
-55 71 -124 49 -130 58 -170 58 -267 0 -67 -6 -105 -30 -180 -43 -136 -52
-180 -52 -254 0 -76 6 -96 29 -96 25 0 47 46 65 137 9 45 31 126 48 180 27 84
32 113 32 203 0 120 -15 188 -71 318 -42 98 -108 175 -161 187 -37 8 -35 3
-21 79 7 41 7 89 0 164 -16 160 -31 224 -49 220 -22 -4 -40 -108 -52 -308 -6
-90 -14 -168 -18 -172 -5 -5 -22 -10 -37 -11 -24 -2 -34 5 -54 36 -24 36 -62
50 -75 28 -4 -6 -19 -5 -39 1 -95 30 -122 63 -122 151 0 47 6 71 23 98 33 53
32 193 -2 265 -35 75 -101 125 -143 107z"/>
<path d="M12270 10365 c-6 -22 -14 -80 -16 -130 -3 -49 -7 -100 -10 -112 l-4
-22 -36 21 c-36 21 -39 21 -198 8 -88 -7 -206 -15 -260 -17 -87 -4 -101 -7
-117 -26 -15 -19 -30 -23 -120 -27 -94 -5 -104 -7 -107 -25 -2 -11 -15 -32
-29 -46 -19 -21 -24 -35 -21 -65 5 -61 18 -60 226 17 49 19 79 22 217 23 150
1 162 2 189 24 24 18 41 22 105 22 47 0 87 6 104 15 17 8 40 12 57 8 27 -5 31
-2 45 30 31 74 31 281 0 323 -12 17 -14 15 -25 -21z"/>
<path d="M10285 10343 c-176 -15 -299 -106 -390 -287 -93 -184 -101 -379 -22
-531 40 -77 145 -185 180 -185 l26 0 -15 44 c-8 24 -37 79 -65 122 -61 97 -79
155 -79 254 0 183 99 379 227 447 34 18 89 37 124 42 84 14 192 14 206 0 8 -8
15 -4 27 12 19 28 21 53 4 66 -14 11 -161 22 -223 16z"/>
<path d="M13675 10277 c-45 -45 -60 -101 -60 -236 0 -97 3 -115 17 -125 30
-18 38 4 47 131 6 79 18 144 33 191 28 83 18 94 -37 39z"/>
<path d="M12745 10159 c-147 -25 -187 -34 -265 -62 -149 -52 -245 -109 -378
-225 -71 -61 -74 -63 -93 -47 -17 16 -25 17 -81 5 -35 -7 -86 -21 -115 -31
-112 -38 -288 -161 -332 -232 -20 -33 -29 -107 -13 -107 4 0 39 32 77 71 77
78 148 130 240 176 55 28 158 63 184 63 18 0 12 -24 -18 -72 -59 -93 -84 -146
-119 -248 -34 -101 -35 -112 -38 -270 -3 -159 -4 -165 -26 -179 -64 -41 -175
-175 -197 -240 -14 -44 -14 -116 1 -158 12 -32 11 -35 -33 -81 -58 -60 -141
-168 -181 -235 -31 -51 -32 -55 -38 -219 -4 -100 -12 -173 -18 -181 -21 -25
-42 -100 -44 -151 -1 -67 16 -80 97 -72 46 5 79 17 149 57 l90 51 35 -18 c24
-14 52 -18 98 -17 46 1 66 -2 69 -12 3 -7 22 -16 42 -20 20 -4 69 -22 108 -40
40 -19 105 -44 145 -56 41 -12 97 -32 124 -44 28 -12 74 -28 104 -34 29 -6 79
-27 110 -46 32 -20 109 -52 172 -72 l114 -37 300 0 300 -1 94 34 c73 26 98 31
112 23 13 -9 21 -6 35 10 11 11 42 37 69 58 36 27 60 56 84 103 18 35 43 77
55 92 l22 28 34 -18 c51 -26 162 -32 196 -11 24 16 29 16 65 2 52 -21 87 -20
126 4 41 25 64 60 65 100 2 71 -58 77 -92 9 -26 -49 -48 -50 -99 -4 -21 19
-47 35 -58 35 -21 0 -46 -23 -57 -54 -5 -16 -13 -17 -48 -12 -50 8 -94 40
-129 90 -14 23 -35 39 -52 43 -18 4 -29 14 -33 30 -7 26 -37 43 -64 36 -8 -3
-35 -32 -60 -65 -43 -57 -83 -88 -113 -88 -7 0 -24 12 -38 26 -28 31 -70 54
-97 54 -25 0 -52 -31 -52 -59 0 -25 5 -25 -89 -1 -24 6 -55 20 -69 30 -29 24
-95 26 -132 5 -15 -8 -54 -15 -95 -15 -38 -1 -88 -7 -110 -15 -22 -8 -50 -15
-62 -15 -12 0 -25 -4 -28 -10 -3 -5 -19 -10 -35 -10 -24 0 -32 6 -43 33 -30
70 -83 80 -146 26 -21 -19 -40 -41 -40 -50 -2 -27 -23 -37 -97 -44 -56 -6 -77
-4 -102 9 -47 24 -80 21 -88 -8 -8 -33 -1 -42 49 -68 44 -22 137 -30 188 -16
14 4 52 28 84 53 32 25 64 45 71 45 7 0 34 -11 60 -25 76 -40 176 -31 322 31
45 19 62 18 62 -6 0 -11 4 -20 10 -20 5 0 14 9 20 20 14 27 43 25 88 -5 32
-22 48 -25 118 -25 67 0 86 4 107 21 l27 20 42 -25 c96 -55 159 -42 229 48 24
31 51 56 60 56 10 0 23 -18 34 -47 10 -25 24 -58 32 -72 15 -30 27 -17 -140
-158 -87 -73 -107 -85 -194 -115 l-98 -33 -285 0 -285 0 -110 33 c-60 18 -135
49 -166 68 -31 18 -85 40 -120 48 -35 8 -113 32 -172 52 -97 33 -108 39 -103
58 6 24 -31 47 -63 39 -13 -3 -47 13 -97 46 -82 54 -108 60 -140 36 -30 -23
-82 -18 -116 10 -50 43 -85 32 -211 -68 -29 -23 -42 -27 -67 -22 -45 10 -43
45 13 165 21 44 24 87 15 228 -2 32 2 46 14 53 9 5 27 26 39 47 24 39 51 74
138 179 55 66 98 93 147 93 15 0 36 8 47 17 14 13 41 19 97 21 l77 4 75 -75
c41 -41 86 -77 99 -79 34 -5 69 12 69 34 0 25 -23 69 -49 92 -12 11 -21 25
-21 33 0 7 -27 42 -59 77 -145 156 -225 452 -180 668 58 277 112 382 268 515
161 137 459 243 686 243 142 0 338 -46 458 -107 180 -91 339 -248 427 -424 21
-41 45 -81 54 -88 35 -29 47 -108 41 -261 -9 -212 -24 -278 -94 -417 -51 -103
-112 -182 -210 -276 -64 -60 -81 -82 -81 -105 0 -15 5 -33 12 -40 19 -19 67
-14 101 10 44 29 157 140 157 153 0 6 21 44 46 85 26 41 62 108 81 148 19 40
40 72 48 72 18 0 105 -89 106 -110 5 -63 -68 -187 -129 -220 -20 -11 -52 -33
-71 -49 -26 -23 -32 -35 -28 -53 9 -33 47 -52 90 -44 39 7 117 70 117 94 0 10
9 33 20 52 75 131 85 161 82 233 -2 34 -87 128 -138 152 -39 18 -39 14 -19
125 27 151 12 311 -42 468 -26 77 -25 102 4 102 31 0 81 -37 177 -130 82 -79
142 -120 176 -120 15 0 -67 97 -160 190 -91 91 -144 118 -200 103 -21 -5 -42
-7 -47 -4 -4 3 -30 40 -58 81 -171 257 -457 421 -810 465 -124 16 -149 16
-220 4z m-916 -1278 c7 -25 30 -82 52 -128 26 -57 34 -85 26 -88 -7 -2 -43 -6
-82 -10 -38 -3 -89 -11 -113 -17 -55 -14 -72 0 -72 57 0 35 9 57 50 119 53 78
108 133 120 119 4 -4 12 -28 19 -52z"/>
<path d="M14070 10029 c-14 -5 -31 -17 -38 -27 -10 -13 -26 -16 -78 -13 -69 3
-89 -6 -105 -45 -4 -13 -18 -24 -31 -26 -12 -2 -24 -11 -26 -20 -5 -25 40 -33
100 -19 72 16 256 14 360 -5 67 -13 92 -14 101 -5 18 18 35 13 98 -30 76 -52
111 -64 138 -49 27 14 26 40 -4 100 -26 51 -57 80 -88 80 -10 0 -29 7 -43 17
-55 36 -324 65 -384 42z"/>
<path d="M10837 9653 c-12 -12 -7 -41 8 -47 20 -7 45 3 45 18 0 25 -37 46 -53
29z"/>
<path d="M10807 9304 c-9 -10 2 -24 19 -24 8 0 14 7 14 15 0 15 -21 21 -33 9z"/>
<path d="M14095 8378 c3 -13 9 -33 12 -46 3 -12 28 -41 57 -64 100 -81 126
-110 126 -141 0 -43 17 -67 48 -67 58 -1 109 -80 82 -130 l-12 -22 -24 23
c-20 18 -29 21 -42 13 -27 -17 -25 -39 7 -108 17 -35 31 -67 31 -70 0 -13 -31
-5 -36 9 -8 20 -44 19 -44 0 0 -23 46 -65 70 -65 11 0 30 10 41 21 18 18 21
29 16 69 -5 39 -2 51 13 65 25 22 34 72 26 130 -5 33 -21 62 -59 111 -86 110
-149 175 -202 209 -27 18 -61 45 -74 59 -30 32 -46 34 -36 4z"/>
<path d="M11213 7460 c-27 -31 -73 -156 -89 -242 -8 -43 -16 -127 -17 -186 -2
-131 9 -164 66 -193 l40 -21 -7 24 c-26 82 -29 126 -18 254 9 103 19 157 47
244 29 88 34 114 24 126 -16 19 -26 18 -46 -6z"/>
<path d="M14404 7325 c-4 -9 -2 -34 5 -54 14 -47 14 -296 1 -411 -12 -99 -5
-170 17 -170 43 0 78 207 72 430 -3 110 -8 142 -24 175 -22 43 -60 60 -71 30z"/>
<path d="M10309 4003 c-7 -18 -9 -85 -7 -178 4 -131 8 -156 28 -198 12 -26 28
-46 34 -44 15 5 21 400 6 427 -16 29 -48 25 -61 -7z"/>
<path d="M15320 4005 c-14 -36 -16 -413 -3 -426 15 -15 38 21 58 87 19 63 21
334 3 352 -20 20 -48 14 -58 -13z"/>
</g>
</svg>
